<svg width="29" height="29" viewBox="0 0 29 29" fill="none" xmlns="http://www.w3.org/2000/svg">
<path d="M15.7107 6.04116C15.7107 5.37381 15.1697 4.83282 14.5024 4.83282C13.835 4.83282 13.2941 5.37381 13.2941 6.04116V15.8121L9.9192 12.4372C9.44732 11.9654 8.68224 11.9654 8.21036 12.4372C7.73848 12.9091 7.73847 13.6742 8.21036 14.1461L12.7935 18.7292C13.7373 19.673 15.2674 19.673 16.2112 18.7292L20.792 14.1484C21.2638 13.6766 21.2638 12.9115 20.792 12.4396C20.3201 11.9677 19.555 11.9677 19.0831 12.4396L15.7107 15.812V6.04116Z" fill="#6F767E"/>
<path fill-rule="evenodd" clip-rule="evenodd" d="M4.83333 16.9167C5.50068 16.9167 6.04167 17.4576 6.04167 18.125V20.5417C6.04167 21.209 6.58266 21.75 7.25 21.75H21.75C22.4173 21.75 22.9583 21.209 22.9583 20.5417V18.125C22.9583 17.4576 23.4993 16.9167 24.1667 16.9167C24.834 16.9167 25.375 17.4576 25.375 18.125V20.5417C25.375 22.5437 23.752 24.1667 21.75 24.1667H7.25C5.24797 24.1667 3.625 22.5437 3.625 20.5417V18.125C3.625 17.4576 4.16599 16.9167 4.83333 16.9167Z" fill="#6F767E"/>
</svg>
