<svg width="25" height="25" viewBox="0 0 25 25" fill="none" xmlns="http://www.w3.org/2000/svg">
<path fill-rule="evenodd" clip-rule="evenodd" d="M10.4167 12.3963C10.4167 13.5469 11.3494 14.4796 12.5 14.4796C13.6506 14.4796 14.5834 13.5469 14.5834 12.3963C14.5834 11.2457 13.6506 10.313 12.5 10.313C11.3494 10.313 10.4167 11.2457 10.4167 12.3963Z" fill="white"/>
<path fill-rule="evenodd" clip-rule="evenodd" d="M16.6667 12.3962C16.6667 11.2046 16.2677 10.1091 15.5956 9.23191C15.2457 8.77525 15.3323 8.12141 15.7889 7.77151C16.2456 7.42161 16.8994 7.50815 17.2493 7.96481C18.1903 9.19292 18.75 10.7307 18.75 12.3962C18.75 14.1321 18.1421 15.7288 17.1285 16.981C16.7666 17.4282 16.1106 17.4973 15.6635 17.1353C15.2163 16.7734 15.1472 16.1175 15.5092 15.6703C16.2335 14.7754 16.6667 13.6378 16.6667 12.3962Z" fill="white"/>
<path fill-rule="evenodd" clip-rule="evenodd" d="M8.33333 12.3962C8.33333 11.203 8.7333 10.1062 9.40703 9.22845C9.75731 8.77208 9.67131 8.11816 9.21494 7.76788C8.75858 7.41761 8.10466 7.50361 7.75438 7.95997C6.81115 9.18887 6.25 10.7285 6.25 12.3962C6.25 14.1308 6.85695 15.7264 7.86914 16.9781C8.23087 17.4255 8.88675 17.4949 9.3341 17.1332C9.78145 16.7714 9.85086 16.1156 9.48913 15.6682C8.76581 14.7737 8.33333 13.6369 8.33333 12.3962Z" fill="white"/>
<path fill-rule="evenodd" clip-rule="evenodd" d="M20.8333 12.3963C20.8333 10.0712 19.9882 7.9462 18.5872 6.30757C18.2134 5.8703 18.2648 5.21276 18.7021 4.83891C19.1393 4.46506 19.7969 4.51646 20.1707 4.95372C21.8821 6.95541 22.9166 9.55636 22.9166 12.3963C22.9166 15.3015 21.834 17.9565 20.0518 19.9758C19.6711 20.4071 19.0128 20.4481 18.5815 20.0674C18.1502 19.6867 18.1091 19.0285 18.4898 18.5971C19.949 16.9439 20.8333 14.7746 20.8333 12.3963Z" fill="white"/>
<path fill-rule="evenodd" clip-rule="evenodd" d="M4.16671 12.3963C4.16671 10.0714 5.01164 7.94649 6.41249 6.3079C6.78632 5.87062 6.73489 5.21308 6.29761 4.83924C5.86033 4.46541 5.20279 4.51684 4.82895 4.95412C3.11774 6.95576 2.08337 9.55656 2.08337 12.3963C2.08337 15.2976 3.16306 17.9493 4.94103 19.9676C5.32132 20.3993 5.97954 20.4409 6.41123 20.0607C6.84291 19.6804 6.88457 19.0221 6.50429 18.5905C5.04859 16.938 4.16671 14.7714 4.16671 12.3963Z" fill="white"/>
</svg>
