<svg width="26" height="27" viewBox="0 0 26 27" fill="none" xmlns="http://www.w3.org/2000/svg">
<path d="M17.142 3.90704C16.7353 3.50015 16.076 3.50014 15.6693 3.90703C15.2626 4.31393 15.2626 4.97363 15.6693 5.38053L16.4909 6.20266H10.6781C6.65211 6.20266 3.38843 9.46804 3.38843 13.4961V14.538C3.38843 15.1134 3.85467 15.5799 4.4298 15.5799C5.00494 15.5799 5.47118 15.1134 5.47118 14.538V13.4961C5.47118 10.6189 7.80238 8.28649 10.6781 8.28649H16.4959L15.6693 9.11354C15.2626 9.52044 15.2626 10.1801 15.6693 10.587C16.076 10.9939 16.7353 10.9939 17.142 10.587L19.3757 8.35214C19.9857 7.74179 19.9857 6.75225 19.3757 6.14191L17.142 3.90704Z" fill="#6F767E"/>
<path d="M14.8421 20.7934C18.8681 20.7934 22.1318 17.5281 22.1318 13.5V12.4581C22.1318 11.8827 21.6655 11.4162 21.0904 11.4162C20.5153 11.4162 20.049 11.8827 20.049 12.4581V13.5C20.049 16.3772 17.7178 18.7096 14.8421 18.7096H9.02428L9.85094 17.8825C10.2576 17.4756 10.2576 16.8159 9.85093 16.409C9.44424 16.0021 8.78488 16.0021 8.3782 16.409L6.14452 18.6439C5.53451 19.2542 5.53451 20.2438 6.14452 20.8541L8.3782 23.089C8.78488 23.4959 9.44424 23.4959 9.85093 23.089C10.2576 22.6821 10.2576 22.0224 9.85094 21.6155L9.02931 20.7934H14.8421Z" fill="#6F767E"/>
</svg>
