<svg width="22" height="22" viewBox="0 0 22 22" fill="none" xmlns="http://www.w3.org/2000/svg">
<path fill-rule="evenodd" clip-rule="evenodd" d="M18.2859 16.6949C19.6715 14.9628 20.5 12.7656 20.5 10.375C20.5 4.78312 15.9669 0.25 10.375 0.25C4.78312 0.25 0.25 4.78312 0.25 10.375C0.25 15.9669 4.78312 20.5 10.375 20.5C12.7656 20.5 14.9628 19.6715 16.6949 18.2859L19.7045 21.2955C20.1438 21.7348 20.8562 21.7348 21.2955 21.2955C21.7348 20.8562 21.7348 20.1438 21.2955 19.7045L18.2859 16.6949ZM18.25 10.375C18.25 14.7242 14.7242 18.25 10.375 18.25C6.02576 18.25 2.5 14.7242 2.5 10.375C2.5 6.02576 6.02576 2.5 10.375 2.5C14.7242 2.5 18.25 6.02576 18.25 10.375Z" fill="#6F767E"/>
</svg>
