<svg width="23" height="21" viewBox="0 0 23 21" fill="none" xmlns="http://www.w3.org/2000/svg">
<path d="M17.9754 0.84555C18.4083 0.386156 19.1102 0.38616 19.5432 0.84556L21.9209 3.3688C22.5703 4.05789 22.5703 5.17512 21.921 5.86421L19.5432 8.38747C19.1103 8.84687 18.4083 8.84688 17.9754 8.38748C17.5425 7.92809 17.5425 7.18326 17.9754 6.72386L18.8553 5.7901H16.2814C15.1132 5.7901 14.0307 6.44051 13.4296 7.50349L11.7354 10.5L13.4296 13.4965C14.0307 14.5595 15.1132 15.2099 16.2814 15.2099H18.8554L17.9754 14.2761C17.5425 13.8167 17.5425 13.0719 17.9754 12.6125C18.4083 12.1531 19.1102 12.1531 19.5432 12.6125L21.9209 15.1357C22.5703 15.8248 22.5703 16.942 21.921 17.6311L19.5432 20.1544C19.1102 20.6138 18.4083 20.6138 17.9754 20.1544C17.5425 19.695 17.5425 18.9501 17.9754 18.4907L18.85 17.5626H16.2814C14.3344 17.5626 12.5302 16.4786 11.5285 14.707L10.4426 12.7864L9.36168 14.6981C8.35996 16.4697 6.55574 17.5537 4.60876 17.5537H1.57658C0.964338 17.5537 0.468018 17.027 0.468018 16.3773C0.468018 15.7277 0.964338 15.201 1.57658 15.201H4.60876C5.77695 15.201 6.85948 14.5506 7.46051 13.4876L9.14976 10.5L7.46051 7.51239C6.85948 6.44941 5.77695 5.799 4.60876 5.799H1.57658C0.964338 5.799 0.468018 5.27233 0.468018 4.62265C0.468018 3.97296 0.964338 3.44629 1.57658 3.44629H4.60876C6.55574 3.44629 8.35996 4.53029 9.36168 6.30192L10.4426 8.21356L11.5285 6.29302C12.5302 4.52139 14.3344 3.43738 16.2814 3.43738H18.8501L17.9754 2.50917C17.5425 2.04977 17.5425 1.30494 17.9754 0.84555Z" fill="#6F767E"/>
</svg>
