<svg width="26" height="27" viewBox="0 0 26 27" fill="none" xmlns="http://www.w3.org/2000/svg">
<path fill-rule="evenodd" clip-rule="evenodd" d="M16.5724 15.9928C16.8163 15.8083 17.0332 15.5878 17.2151 15.3373C17.6028 14.8033 17.8117 14.1601 17.8117 13.5C17.8117 12.84 17.6028 12.1968 17.2151 11.6628C17.033 11.4121 16.816 11.1916 16.572 11.007C16.5127 10.962 16.4557 10.9133 16.4019 10.8613C16.3526 10.8136 16.3059 10.7632 16.2624 10.7104C15.9868 10.3759 15.8411 9.94792 15.9748 9.53635C16.1525 8.98908 16.7476 8.68102 17.2484 8.96403C17.4501 9.07803 17.6438 9.20529 17.8283 9.34489M17.8283 9.34489C18.2348 9.6525 18.5968 10.0203 18.9 10.4379C19.5464 11.328 19.8945 12.3999 19.8945 13.5C19.8945 14.6002 19.5464 15.6721 18.9 16.5622C18.5967 16.9799 18.2349 17.3475 17.8283 17.6552C17.6438 17.7948 17.4501 17.9221 17.2484 18.0361C16.7476 18.3191 16.1525 18.011 15.9748 17.4637C15.8411 17.0522 15.9868 16.6242 16.2624 16.2897C16.3059 16.2369 16.3526 16.1865 16.4019 16.1388C16.4557 16.0868 16.5131 16.0377 16.5724 15.9928" fill="white"/>
<path fill-rule="evenodd" clip-rule="evenodd" d="M18.736 18.98C19.5391 18.5388 20.2398 17.9239 20.7839 17.1746C21.5595 16.1065 21.9773 14.8202 21.9773 13.5C21.9773 12.1798 21.5595 10.8935 20.7839 9.82547C20.2135 9.03996 19.4711 8.40213 18.6189 7.95735C18.6176 7.95666 18.6163 7.95597 18.6149 7.95527C18.578 7.93584 18.5422 7.91475 18.5075 7.89216C18.4699 7.86762 18.4337 7.84129 18.399 7.81335C18.0265 7.51328 17.8313 7.02657 17.9816 6.56355C18.1593 6.01628 18.7506 5.71096 19.2712 5.95562C19.376 6.00489 19.4797 6.0563 19.5822 6.10981C20.7184 6.70281 21.7083 7.55323 22.4689 8.60062C23.503 10.0247 24.06 11.7398 24.06 13.5C24.06 15.2603 23.503 16.9753 22.4689 18.3994C21.7083 19.4468 20.7184 20.2972 19.5822 20.8902C19.4797 20.9437 19.376 20.9951 19.2712 21.0444C18.7506 21.2891 18.1593 20.9838 17.9816 20.4365C17.8313 19.9735 18.0265 19.4868 18.399 19.1867C18.4337 19.1587 18.4699 19.1324 18.5075 19.1079C18.5422 19.0853 18.578 19.0642 18.6149 19.0448C18.6163 19.0441 18.6176 19.0434 18.6189 19.0427C18.6582 19.0222 18.6972 19.0013 18.736 18.98Z" fill="white"/>
<path d="M14.6875 21.4108V5.5893C14.6875 3.79895 12.58 2.8421 11.2333 4.02105L6.35654 8.29043H4.27379C2.54838 8.29043 1.14966 9.68988 1.14966 11.4162V15.5839C1.14966 17.3102 2.54838 18.7096 4.27379 18.7096H6.35654L11.2333 22.979C12.58 24.1579 14.6875 23.2011 14.6875 21.4108Z" fill="white"/>
</svg>
